<svg width="1200" height="900" viewBox="0 0 1200 900" fill="none" xmlns="http://www.w3.org/2000/svg">
  <defs>
    <linearGradient id="g1" x1="0" y1="0" x2="1" y2="1">
      <stop offset="0" stop-color="#0b1224"/>
      <stop offset="1" stop-color="#0f1b34"/>
    </linearGradient>
    <linearGradient id="acc1" x1="0" y1="0" x2="1" y2="1">
      <stop offset="0" stop-color="#6366F1"/>
      <stop offset="1" stop-color="#EC4899"/>
    </linearGradient>
    <filter id="shadow" x="-20%" y="-20%" width="140%" height="140%">
      <feDropShadow dx="0" dy="10" stdDeviation="20" flood-color="#000" flood-opacity="0.35"/>
    </filter>
  </defs>
  <rect width="1200" height="900" rx="24" fill="url(#g1)"/>
  <rect x="120" y="120" width="960" height="84" rx="16" fill="#121A31" stroke="#1E2A4A" filter="url(#shadow)"/>
  <circle cx="170" cy="162" r="10" fill="#F43F5E"/>
  <circle cx="200" cy="162" r="10" fill="#F59E0B"/>
  <circle cx="230" cy="162" r="10" fill="#10B981"/>
  <rect x="780" y="142" width="270" height="40" rx="10" fill="#0D1430" stroke="#263152"/>
  <rect x="804" y="150" width="160" height="24" rx="6" fill="#111B3A"/>
  <g transform="translate(120,250)">
    <rect x="0" y="0" width="960" height="520" rx="20" fill="#0F1730" stroke="#1E2A4A" filter="url(#shadow)"/>
    <g transform="translate(40,40)">
      <rect x="0" y="0" width="360" height="160" rx="14" fill="#0B132B" stroke="#243557"/>
      <rect x="0" y="0" width="360" height="48" rx="14" fill="#0E1734"/>
      <rect x="24" y="16" width="110" height="16" rx="8" fill="#27365B"/>
      <rect x="24" y="80" width="180" height="12" rx="6" fill="#1D2E52"/>
      <rect x="24" y="108" width="220" height="12" rx="6" fill="#1D2E52"/>
      <rect x="24" y="136" width="150" height="12" rx="6" fill="#1D2E52"/>
      <rect x="384" y="0" width="456" height="160" rx="14" fill="#0B132B" stroke="#243557"/>
      <rect x="384" y="0" width="456" height="48" rx="14" fill="#0E1734"/>
      <rect x="408" y="16" width="140" height="16" rx="8" fill="#27365B"/>
      <rect x="408" y="80" width="200" height="12" rx="6" fill="#1D2E52"/>
      <rect x="408" y="108" width="320" height="12" rx="6" fill="#1D2E52"/>
    </g>
    <g transform="translate(40,236)">
      <rect x="0" y="0" width="280" height="220" rx="14" fill="#0B132B" stroke="#243557"/>
      <rect x="24" y="26" width="232" height="140" rx="10" fill="#0E1734" stroke="#243557"/>
      <rect x="24" y="180" width="90" height="18" rx="9" fill="#26365C"/>
      <rect x="126" y="180" width="130" height="18" rx="9" fill="#26365C"/>
      <rect x="304" y="0" width="280" height="220" rx="14" fill="#0B132B" stroke="#243557"/>
      <rect x="328" y="26" width="232" height="140" rx="10" fill="#0E1734" stroke="#243557"/>
      <rect x="328" y="180" width="90" height="18" rx="9" fill="#26365C"/>
      <rect x="430" y="180" width="130" height="18" rx="9" fill="#26365C"/>
      <rect x="608" y="0" width="280" height="220" rx="14" fill="#0B132B" stroke="#243557"/>
      <rect x="632" y="26" width="232" height="140" rx="10" fill="#0E1734" stroke="#243557"/>
      <rect x="632" y="180" width="90" height="18" rx="9" fill="#26365C"/>
      <rect x="734" y="180" width="130" height="18" rx="9" fill="#26365C"/>
    </g>
    <circle cx="860" cy="480" r="44" fill="url(#acc1)" filter="url(#shadow)"/>
    <rect x="820" y="460" width="80" height="40" rx="20" fill="#0B132B" stroke="#243557"/>
  </g>
</svg>