<svg width="1200" height="900" viewBox="0 0 1200 900" fill="none" xmlns="http://www.w3.org/2000/svg">
  <defs>
    <linearGradient id="bg3" x1="0" y1="0" x2="1" y2="1">
      <stop offset="0" stop-color="#0A1226"/>
      <stop offset="1" stop-color="#0E1833"/>
    </linearGradient>
    <linearGradient id="acc3" x1="0" y1="0" x2="1" y2="1">
      <stop offset="0" stop-color="#6366F1"/>
      <stop offset="1" stop-color="#EC4899"/>
    </linearGradient>
    <filter id="shadow" x="-20%" y="-20%" width="140%" height="140%">
      <feDropShadow dx="0" dy="10" stdDeviation="18" flood-color="#000" flood-opacity="0.35"/>
    </filter>
  </defs>
  <rect width="1200" height="900" rx="24" fill="url(#bg3)"/>
  <g stroke="#223456">
    <rect x="200" y="340" width="160" height="120" rx="14" fill="#0D1734" />
    <rect x="420" y="260" width="160" height="120" rx="14" fill="#0D1734" />
    <rect x="420" y="420" width="160" height="120" rx="14" fill="#0D1734" />
    <rect x="840" y="260" width="160" height="120" rx="14" fill="#0D1734" />
    <rect x="840" y="420" width="160" height="120" rx="14" fill="#0D1734" />
    <rect x="620" y="520" width="160" height="120" rx="14" fill="#0D1734" />
    <line x1="360" y1="400" x2="420" y2="320" stroke="#274067"/>
    <line x1="360" y1="400" x2="420" y2="480" stroke="#274067"/>
    <line x1="580" y1="320" x2="760" y2="320" stroke="#274067"/>
    <line x1="580" y1="480" x2="760" y2="480" stroke="#274067"/>
    <line x1="760" y1="480" x2="620" y2="580" stroke="#274067"/>
    <line x1="760" y1="320" x2="760" y2="480" stroke="#274067"/>
  </g>
  <g transform="translate(600,400)">
    <circle r="120" fill="url(#acc3)" filter="url(#shadow)"/>
    <g fill="#0B132B">
      <circle r="20"/>
      <rect x="-12" y="-170" width="24" height="44" rx="6"/>
      <rect x="-12" y="126" width="24" height="44" rx="6"/>
      <rect x="-170" y="-12" width="44" height="24" rx="6"/>
      <rect x="126" y="-12" width="44" height="24" rx="6"/>
      <g transform="rotate(45)">
        <rect x="-12" y="-170" width="24" height="44" rx="6"/>
        <rect x="-12" y="126" width="24" height="44" rx="6"/>
      </g>
      <g transform="rotate(90)">
        <rect x="-12" y="-170" width="24" height="44" rx="6"/>
        <rect x="-12" y="126" width="24" height="44" rx="6"/>
      </g>
      <g transform="rotate(135)">
        <rect x="-12" y="-170" width="24" height="44" rx="6"/>
        <rect x="-12" y="126" width="24" height="44" rx="6"/>
      </g>
    </g>
  </g>
</svg>