<svg width="1200" height="900" viewBox="0 0 1200 900" fill="none" xmlns="http://www.w3.org/2000/svg">
  <defs>
    <radialGradient id="bg2" cx="50%" cy="50%" r="70%">
      <stop offset="0" stop-color="#0E1631"/>
      <stop offset="1" stop-color="#0A1022"/>
    </radialGradient>
    <linearGradient id="ring" x1="0" y1="0" x2="1" y2="1">
      <stop offset="0" stop-color="#6366F1"/>
      <stop offset="1" stop-color="#EC4899"/>
    </linearGradient>
    <filter id="shadow" x="-20%" y="-20%" width="140%" height="140%">
      <feDropShadow dx="0" dy="12" stdDeviation="18" flood-color="#000" flood-opacity="0.35"/>
    </filter>
  </defs>
  <rect width="1200" height="900" rx="24" fill="url(#bg2)"/>
  <g transform="translate(600,470)">
    <circle r="290" fill="#0B132B" stroke="#233455" stroke-width="2" filter="url(#shadow)"/>
    <circle r="230" fill="#0D1533" stroke="#233455" stroke-width="2"/>
    <circle r="168" fill="#0B132B" stroke="#233455" stroke-width="2"/>
    <path d="M -250 0 A 250 250 0 0 1 250 0" stroke="url(#ring)" stroke-width="8" fill="none" stroke-linecap="round"/>
    <g stroke="#263A63">
      <line x1="-0.00" y1="-280.00" x2="-0.00" y2="-260.00" stroke-width="2"/>
      <line x1="-58.22" y1="-273.88" x2="-54.06" y2="-254.32" stroke-width="1"/>
      <line x1="-113.89" y1="-255.79" x2="-105.75" y2="-237.52" stroke-width="1"/>
      <line x1="-164.58" y1="-226.52" x2="-152.82" y2="-210.34" stroke-width="2"/>
      <line x1="-208.08" y1="-187.36" x2="-193.22" y2="-173.97" stroke-width="1"/>
      <line x1="-242.49" y1="-140.00" x2="-225.17" y2="-130.00" stroke-width="1"/>
      <line x1="-266.30" y1="-86.52" x2="-247.27" y2="-80.34" stroke-width="2"/>
      <line x1="-278.47" y1="-29.27" x2="-258.58" y2="-27.18" stroke-width="1"/>
      <line x1="-278.47" y1="29.27" x2="-258.58" y2="27.18" stroke-width="1"/>
      <line x1="-266.30" y1="86.52" x2="-247.27" y2="80.34" stroke-width="2"/>
      <line x1="-242.49" y1="140.00" x2="-225.17" y2="130.00" stroke-width="1"/>
      <line x1="-208.08" y1="187.36" x2="-193.22" y2="173.97" stroke-width="1"/>
      <line x1="-164.58" y1="226.52" x2="-152.82" y2="210.34" stroke-width="2"/>
      <line x1="-113.89" y1="255.79" x2="-105.75" y2="237.52" stroke-width="1"/>
      <line x1="-58.22" y1="273.88" x2="-54.06" y2="254.32" stroke-width="1"/>
      <line x1="-0.00" y1="280.00" x2="-0.00" y2="260.00" stroke-width="2"/>
    </g>
    <g transform="rotate(-25)">
      <line x1="0" y1="0" x2="0" y2="-240" stroke="url(#ring)" stroke-width="6" stroke-linecap="round"/>
      <circle r="14" fill="url(#ring)"/>
    </g>
    <circle r="70" fill="url(#ring)" filter="url(#shadow)"/>
    <text x="0" y="10" text-anchor="middle" font-family="Inter, system-ui" font-size="36" fill="white" opacity=".95">8</text>
  </g>
  <g font-family="Inter, system-ui" fill="#8293C8" font-size="16">
    <text x="230" y="780">6</text>
    <text x="575" y="780">8</text>
    <text x="920" y="780">10</text>
  </g>
</svg>